<svg version="1.1" id="Layer_1" xmlns="http://www.w3.org/2000/svg" xmlns:xlink="http://www.w3.org/1999/xlink" x="0px" y="0px"
	 width="100%" viewBox="0 0 528 464" enable-background="new 0 0 528 464" xml:space="preserve">
<path fill="#000000" opacity="1.000000" stroke="none" 
	d="
M30.000000,1.000000 
	C196.295853,1.000000 362.591705,1.000000 528.943787,1.000000 
	C528.943787,155.594315 528.943787,310.188660 528.943787,464.891510 
	C353.112030,464.891510 177.223984,464.891510 1.000000,464.891510 
	C1.000000,328.976105 1.000000,192.951935 1.176834,56.737854 
	C2.112746,57.658676 1.512379,59.547241 3.681007,60.364880 
	C4.864202,54.879219 5.840358,49.346123 12.109820,47.358517 
	C14.411180,49.606087 13.525456,52.751190 14.532769,55.304104 
	C15.030790,56.566280 15.558368,57.843456 17.175661,57.904575 
	C18.483610,57.953999 19.374189,57.094715 19.933943,56.066898 
	C20.642153,54.766487 21.087021,53.325840 21.720316,51.980923 
	C25.579103,43.786057 28.385132,35.065804 34.979717,28.317713 
	C39.130669,24.070135 39.374084,19.178778 36.085758,14.226351 
	C34.179649,11.355624 33.345402,8.198000 32.568661,5.008883 
	C32.143398,3.262849 31.507570,1.923371 30.000000,1.000000 
M58.804733,230.604599 
	C97.302177,230.607391 135.799622,230.617035 174.297058,230.606766 
	C181.348007,230.604889 182.236755,229.103973 180.109970,222.605835 
	C175.750458,209.286041 173.660065,195.436340 173.090652,181.551743 
	C172.322723,162.826614 175.666779,144.744141 183.307037,127.319679 
	C194.875122,100.937317 213.524826,81.262680 238.910034,68.563286 
	C261.656250,57.184105 285.936615,52.394882 311.786469,54.971287 
	C328.781342,56.665138 344.846069,60.866131 360.131470,67.818573 
	C378.119690,76.000374 393.519867,87.920654 407.583984,101.991119 
	C421.834473,116.248016 433.377075,132.243317 443.424652,149.516083 
	C444.688232,151.688232 445.958710,154.305344 448.709320,154.365082 
	C457.279022,154.551163 465.919525,155.446136 474.574585,153.246201 
	C474.350952,149.849457 472.558105,147.450928 471.238922,144.814499 
	C457.626099,117.608284 439.233307,94.039368 416.399414,74.077087 
	C393.179230,53.777103 366.790253,39.508308 336.425049,32.443722 
	C319.017670,28.393822 301.457062,27.429470 284.047211,28.845066 
	C256.533966,31.082170 230.806122,39.804363 207.870468,55.770649 
	C198.428223,62.343716 189.676529,69.820747 182.242615,78.468521 
	C175.050568,86.834976 168.726654,95.992805 163.577606,105.907211 
	C157.182144,118.221489 152.200302,131.011307 149.418839,144.594070 
	C145.793137,162.299500 145.373184,180.166351 147.969681,198.023743 
	C148.699005,203.039551 146.649139,203.536011 142.607452,203.486923 
	C129.443192,203.326981 116.275795,203.427139 103.109604,203.424622 
	C84.776970,203.421127 66.444344,203.413681 48.111713,203.411285 
	C41.010048,203.410355 40.882633,203.681534 43.743587,210.411789 
	C45.695187,215.002838 47.798981,219.569031 49.237617,224.326889 
	C50.616512,228.887115 53.099564,231.134918 58.804733,230.604599 
M460.625244,267.942230 
	C479.753601,269.766296 498.893555,267.804352 518.025574,268.139313 
	C520.951965,268.190582 521.933899,267.459778 520.972717,264.320221 
	C519.116272,258.256287 516.066650,252.700653 513.948853,246.763580 
	C512.955627,243.979279 511.125854,242.559494 508.168152,242.041061 
	C502.078217,240.973633 496.080688,242.251495 490.042664,242.329346 
	C476.953125,242.498154 463.860077,242.396576 450.768463,242.399216 
	C435.343994,242.402344 419.918060,242.518692 404.495850,242.332153 
	C399.205261,242.268173 393.954193,241.024277 388.609619,241.404938 
	C382.592560,241.833466 381.046204,243.659912 382.901031,249.357254 
	C387.291443,262.843079 389.270508,276.779602 390.242462,290.796173 
	C391.343842,306.679352 388.371124,322.156586 383.286652,337.210541 
	C380.734283,344.767517 377.281616,351.987885 373.189240,358.756683 
	C365.124542,372.095612 354.477020,383.036896 341.957153,392.532501 
	C320.817505,408.565643 296.818939,416.343201 270.891968,417.819183 
	C247.918594,419.127045 225.804001,414.458557 204.654816,404.757751 
	C179.188629,393.076813 158.644608,375.493683 141.050064,354.144806 
	C132.713333,344.029205 125.499954,333.083130 119.149734,321.595825 
	C117.642067,318.868530 115.408875,317.398529 112.292564,317.409119 
	C106.129402,317.430023 99.966225,317.487732 93.803474,317.563782 
	C91.962654,317.586456 90.128090,317.733765 88.727303,319.520050 
	C88.844894,320.052307 88.895821,320.719238 89.140076,321.305634 
	C89.843491,322.994263 90.560204,324.683105 91.385841,326.314117 
	C99.036079,341.426575 108.438400,355.317841 118.836243,368.738708 
	C134.266937,388.655701 152.537766,405.304474 173.923325,418.198456 
	C206.838623,438.044067 242.656464,446.456451 281.185242,442.700653 
	C300.355225,440.831970 318.559479,435.910278 335.829254,427.423553 
	C360.380737,415.358490 380.257019,398.132812 394.802063,374.794250 
	C409.969543,350.456970 417.011078,323.829956 417.475952,295.391510 
	C417.588898,288.482391 416.215729,281.553314 415.601227,274.626709 
	C415.019867,268.073608 415.100403,268.062866 421.861969,267.967804 
	C434.493134,267.790222 447.125458,269.707275 460.625244,267.942230 
M214.340271,395.986053 
	C238.107010,405.094116 262.526367,407.648315 287.693024,403.640564 
	C316.470184,399.057861 339.603729,384.463715 357.550110,362.284637 
	C377.350677,337.814087 382.921143,309.078278 378.985168,278.128662 
	C377.061340,263.001221 372.363220,248.761307 366.775757,234.720062 
	C366.177185,233.215866 365.062988,231.765915 366.804352,229.613647 
	C368.554047,229.613647 370.694672,229.613602 372.835297,229.613663 
	C414.001587,229.614929 455.167908,229.616318 496.334198,229.616959 
	C497.834167,229.616989 499.337433,229.672455 500.833496,229.593887 
	C505.323242,229.358063 506.264740,228.100937 504.641327,223.950058 
	C502.597260,218.723557 500.198059,213.636368 498.132812,208.417572 
	C496.893066,205.284851 494.729401,204.344528 491.518616,204.348083 
	C436.519196,204.408890 381.519653,204.396790 326.520172,204.418869 
	C324.895447,204.419525 322.936462,204.016327 322.005066,205.788452 
	C321.016937,207.668564 322.205017,209.349869 323.271851,210.823441 
	C328.556305,218.122772 332.832184,226.056671 336.689850,234.116455 
	C346.346893,254.292831 353.265869,275.077728 352.648438,298.081146 
	C352.205658,314.578461 348.153076,329.598053 339.158478,343.117401 
	C330.017548,356.856659 317.065552,366.377319 301.947906,372.736908 
	C290.700256,377.468536 278.705566,379.743073 266.586151,379.733032 
	C259.906311,379.727478 253.089783,378.865326 246.366501,377.582428 
	C231.139053,374.676819 217.066788,369.070221 204.175964,360.628662 
	C187.997543,350.034149 174.933197,336.202118 163.895676,320.408325 
	C162.466110,318.362701 160.842377,317.129181 158.189407,317.090027 
	C151.730392,316.994659 145.275330,316.553284 138.817184,316.517242 
	C136.410400,316.503845 133.999512,317.230530 130.845535,317.740112 
	C150.667862,352.797577 176.899994,379.827454 214.340271,395.986053 
M198.624695,121.010414 
	C186.032089,141.285065 181.951004,163.693237 183.722839,187.006912 
	C185.043823,204.388550 188.990585,221.416763 196.791412,237.289261 
	C197.467468,238.664841 198.382217,240.211395 197.521072,242.079468 
	C191.711349,242.386749 185.887619,243.258133 180.141922,242.895004 
	C161.518448,241.717926 142.897491,242.899704 124.278122,242.498703 
	C109.976265,242.190704 95.662430,242.437332 81.353928,242.439697 
	C75.687996,242.440643 70.012199,242.240540 64.358818,242.509171 
	C58.348633,242.794739 57.330444,244.875107 59.880848,250.159363 
	C61.249027,252.994110 62.318607,255.978409 63.432453,258.929382 
	C66.431297,266.874298 68.180756,268.424255 76.489983,268.321350 
	C86.257584,268.200378 96.008247,268.338470 105.772133,268.566925 
	C121.205956,268.928040 136.634323,268.018677 152.092667,268.452240 
	C167.019058,268.870819 181.978088,268.015686 196.924225,267.872253 
	C210.067719,267.746124 223.213715,267.893646 236.357590,267.790771 
	C241.565826,267.750031 242.350754,266.273682 239.913879,261.778870 
	C237.535568,257.392059 235.277740,252.929993 232.695236,248.665558 
	C222.801956,232.329010 215.308792,214.988266 212.106369,196.128708 
	C208.701965,176.079666 209.668732,156.360748 219.204285,137.761017 
	C228.315781,119.988487 242.446594,107.615189 260.624512,99.958969 
	C278.127808,92.586868 296.339569,91.293907 315.094910,94.469200 
	C342.973541,99.189072 365.353546,113.297081 384.407471,133.532211 
	C389.989258,139.460022 394.670837,146.089691 399.672424,152.469879 
	C401.228851,154.455353 402.984100,155.625290 405.554047,155.610062 
	C412.552979,155.568588 419.555817,155.726181 426.550293,155.543671 
	C431.147064,155.423721 431.765533,154.019653 429.615356,149.974960 
	C424.453491,140.265137 417.830566,131.623917 411.029236,123.000336 
	C395.416687,103.204666 375.610535,88.915169 353.016663,78.585785 
	C330.785187,68.422104 307.292816,65.559776 282.837616,68.199165 
	C265.569092,70.062912 249.898254,75.575363 235.137589,84.260452 
	C219.990036,93.173187 207.861374,105.152985 198.624695,121.010414 
M410.499969,166.884750 
	C362.341492,166.883514 314.183014,166.871475 266.024536,166.890533 
	C256.828125,166.894165 255.886154,168.293472 260.317505,176.143158 
	C269.946930,193.200714 279.650757,210.218704 289.544281,227.124069 
	C300.137482,245.225067 310.463409,263.372772 314.299072,284.412750 
	C316.223938,294.971313 315.952820,305.466400 311.859467,315.232330 
	C304.360260,333.123901 289.105743,340.639069 270.875214,342.267181 
	C249.986664,344.132629 231.798828,337.019958 215.913391,323.495148 
	C213.073715,321.077454 210.459366,317.709503 206.345139,317.519501 
	C196.936707,317.085022 187.544434,317.625610 178.172104,318.352142 
	C178.339966,321.571320 178.939758,323.386505 180.378113,325.043243 
	C188.777985,334.718628 197.963577,343.454315 208.487915,350.913635 
	C219.373581,358.629150 231.210358,364.338867 244.009537,367.170837 
	C261.045288,370.940186 278.260193,370.408173 294.964966,364.466492 
	C317.798798,356.344696 333.034698,340.887512 339.949707,317.512207 
	C343.788757,304.534760 343.721069,291.375549 341.221741,278.212341 
	C338.798920,265.452332 335.270538,252.915359 329.029663,241.514206 
	C321.307617,227.407120 312.710663,213.779892 304.559509,199.905502 
	C303.511810,198.122177 301.982635,196.438004 302.202728,193.850006 
	C307.184235,192.931702 312.161194,193.047485 317.108704,193.047302 
	C360.101074,193.045807 403.093414,193.107224 446.085785,193.126892 
	C459.081879,193.132828 472.077942,193.050156 485.074036,193.044846 
	C488.472229,193.043442 490.915222,192.250320 489.280243,188.127853 
	C486.954956,182.264832 484.446167,176.474777 482.099548,170.619995 
	C480.875061,167.564911 478.756348,166.487610 475.487305,166.518478 
	C454.158936,166.719910 432.829254,166.780121 410.499969,166.884750 
M284.445587,104.238922 
	C279.340607,104.139351 274.613861,105.860199 269.879944,107.403519 
	C246.563583,115.004898 231.113022,130.603271 223.692993,153.886536 
	C217.661179,172.813797 220.461197,191.552200 226.123596,210.046371 
	C231.335907,227.070465 240.292145,242.216873 249.840149,257.084625 
	C254.019547,263.592651 257.685883,270.430176 261.637665,277.208038 
	C260.688232,277.760193 260.299896,278.163300 259.873596,278.208466 
	C238.981659,280.421936 218.001953,279.433441 197.064270,279.650848 
	C190.273560,279.721344 183.416992,279.403107 176.618744,279.569641 
	C149.323288,280.238281 122.037086,280.178284 94.745880,279.468384 
	C89.257652,279.325592 83.754959,279.418213 78.268608,279.640808 
	C74.792961,279.781738 72.994171,281.214478 74.809082,285.108887 
	C76.914429,289.626526 78.993568,294.199768 80.522621,298.930328 
	C82.036400,303.613678 84.946228,304.694427 89.542343,304.684052 
	C148.203476,304.551880 206.864990,304.589172 265.526398,304.577271 
	C277.190674,304.574921 288.855133,304.575134 300.519196,304.518280 
	C306.337982,304.489929 307.360260,303.071899 304.730652,298.112915 
	C300.696045,290.504333 296.514954,282.964752 292.139496,275.547241 
	C280.174561,255.263565 267.215363,235.540451 257.301178,214.103287 
	C250.900131,200.262604 246.589951,185.707809 248.394028,170.409500 
	C251.601532,143.210297 267.706482,133.208420 290.124817,130.033051 
	C312.803314,126.820854 332.829285,135.512100 349.766907,150.948120 
	C351.833374,152.831390 353.910614,154.717896 357.128448,154.652130 
	C364.057465,154.510544 370.992737,154.681366 377.922180,154.550446 
	C380.201630,154.507370 382.954407,154.527954 384.146454,152.190781 
	C385.309631,149.910187 383.305145,148.074066 382.002197,146.462021 
	C370.047363,131.671143 355.918976,119.418648 338.437775,111.700081 
	C321.518616,104.229675 303.875336,100.240570 284.445587,104.238922 
z"/>
</svg>